HIERARCHY
ROOT Hips
{
	OFFSET 0.000000 0.000000 0.000000
	CHANNELS 6 Xposition Yposition Zposition Xrotation Yrotation Zrotation
	JOINT LeftUpLeg_virtual
	{
		OFFSET 0.000000 0.000000 0.000000
		CHANNELS 3 Xrotation Yrotation Zrotation
		JOINT LeftUpLeg
		{
			OFFSET 15.427100 -6.655098 0.678600
			CHANNELS 3 Xrotation Yrotation Zrotation
			JOINT LeftLeg
			{
				OFFSET 4.081073 -39.591068 13.024000
				CHANNELS 3 Xrotation Yrotation Zrotation
				JOINT LeftFoot
				{
					OFFSET -4.081074 -37.707932 -15.979700
					CHANNELS 3 Xrotation Yrotation Zrotation
					JOINT LeftToeBase
					{
						OFFSET 5.346399 -15.068900 20.645000
						CHANNELS 3 Xrotation Yrotation Zrotation
						JOINT LeftToe_End
						{
							OFFSET 2.754700 0.931300 11.300900
							CHANNELS 3 Xrotation Yrotation Zrotation
							End Site
							{
								OFFSET 0 0 0
							}
						}
					}
				}
			}
		}
	}
	JOINT RightUpLeg_virtual
	{
		OFFSET 0.000000 0.000000 0.000000
		CHANNELS 3 Xrotation Yrotation Zrotation
		JOINT RightUpLeg
		{
			OFFSET -15.569500 -6.655098 0.678600
			CHANNELS 3 Xrotation Yrotation Zrotation
			JOINT RightLeg
			{
				OFFSET -4.081825 -39.591045 13.023800
				CHANNELS 3 Xrotation Yrotation Zrotation
				JOINT RightFoot
				{
					OFFSET 4.081824 -37.707954 -15.979600
					CHANNELS 3 Xrotation Yrotation Zrotation
					JOINT RightToeBase
					{
						OFFSET -5.346400 -15.068900 20.645000
						CHANNELS 3 Xrotation Yrotation Zrotation
						JOINT RightToe_End
						{
							OFFSET -2.754700 0.931300 11.300900
							CHANNELS 3 Xrotation Yrotation Zrotation
							End Site
							{
								OFFSET 0 0 0
							}
						}
					}
				}
			}
		}
	}
	JOINT Spine_virtual
	{
		OFFSET 0.000000 0.000000 0.000000
		CHANNELS 3 Xrotation Yrotation Zrotation
		JOINT Spine
		{
			OFFSET -0.279200 12.230698 -2.892100
			CHANNELS 3 Xrotation Yrotation Zrotation
			JOINT Spine1
			{
				OFFSET -0.232667 10.192268 -1.242267
				CHANNELS 3 Xrotation Yrotation Zrotation
				JOINT Spine1_split
				{
					OFFSET -0.232667 10.192268 -1.242267
					CHANNELS 3 Xrotation Yrotation Zrotation
					JOINT Spine2
					{
						OFFSET -0.232667 10.192268 -1.242267
						CHANNELS 3 Xrotation Yrotation Zrotation
						JOINT Neck_virtual
						{
							OFFSET 0.000000 0.000000 0.000000
							CHANNELS 3 Xrotation Yrotation Zrotation
							JOINT Neck
							{
								OFFSET -0.418800 17.814194 8.416900
								CHANNELS 3 Xrotation Yrotation Zrotation
								JOINT Head
								{
									OFFSET 0.000000 7.031097 3.806800
									CHANNELS 3 Xrotation Yrotation Zrotation
									JOINT HeadTop_End
									{
										OFFSET 0.000000 24.646606 12.978600
										CHANNELS 3 Xrotation Yrotation Zrotation
										End Site
										{
											OFFSET 0 0 0
										}
									}
								}
							}
						}
						JOINT LeftShoulder_virtual
						{
							OFFSET 0.000000 0.000000 0.000000
							CHANNELS 3 Xrotation Yrotation Zrotation
							JOINT LeftShoulder
							{
								OFFSET 8.476499 7.247704 -3.868750
								CHANNELS 3 Xrotation Yrotation Zrotation
								JOINT LeftShoulder_split
								{
									OFFSET 8.476499 7.247704 -3.868750
									CHANNELS 3 Xrotation Yrotation Zrotation
									JOINT LeftArm
									{
										OFFSET 9.308998 -2.777710 0.208600
										CHANNELS 3 Xrotation Yrotation Zrotation
										JOINT LeftForeArm
										{
											OFFSET 29.972298 0.000000 0.000000
											CHANNELS 3 Xrotation Yrotation Zrotation
											JOINT LeftHand
											{
												OFFSET 26.026505 0.000000 0.000000
												CHANNELS 3 Xrotation Yrotation Zrotation
												End Site
												{
													OFFSET 0 0 0
												}
											}
										}
									}
								}
							}
						}
						JOINT RightShoulder_virtual
						{
							OFFSET 0.000000 0.000000 0.000000
							CHANNELS 3 Xrotation Yrotation Zrotation
							JOINT RightShoulder
							{
								OFFSET -7.570500 7.247704 -3.868750
								CHANNELS 3 Xrotation Yrotation Zrotation
								JOINT RightShoulder_split
								{
									OFFSET -7.570500 7.247704 -3.868750
									CHANNELS 3 Xrotation Yrotation Zrotation
									JOINT RightArm
									{
										OFFSET -9.308998 -2.777710 0.208500
										CHANNELS 3 Xrotation Yrotation Zrotation
										JOINT RightForeArm
										{
											OFFSET -29.972300 0.000000 0.000000
											CHANNELS 3 Xrotation Yrotation Zrotation
											JOINT RightHand
											{
												OFFSET -26.026505 0.000000 0.000000
												CHANNELS 3 Xrotation Yrotation Zrotation
												End Site
												{
													OFFSET 0 0 0
												}
											}
										}
									}
								}
							}
						}
					}
				}
			}
		}
	}
}
MOTION
Frames: 4
Frame Time: 0.03333333
8.454268 93.099884 -5.149549 0.000000 0.000000 0.000000 -1.053905 -19.849368 -1.556485 -6.164018 5.711551 -0.073164 19.091407 8.631574 1.964748 -11.857308 19.929201 -2.145032 -3.516122 -0.008554 -0.604942 0.000000 0.000000 0.000000 -0.531744 -19.516859 -1.683954 -14.907164 -9.758620 -13.225532 16.588501 2.319398 2.143012 -4.983843 -3.307790 6.945067 -7.035939 0.432918 0.772724 0.000000 0.000000 0.000000 -0.884533 -20.228522 -2.598023 4.802152 1.523445 -1.510575 0.607203 0.352377 0.123733 0.914480 0.158204 0.231777 0.000000 0.000000 0.000000 0.736284 0.529878 -0.166249 -0.603693 -0.063670 2.680261 12.863554 9.900498 7.638286 0.000000 0.000000 0.000000 0.308012 0.454673 -0.063107 1.893784 -3.536979 -11.409262 -0.533291 -0.574711 -1.995828 -5.916434 -18.503696 -55.896742 0.071872 -12.456017 0.756802 0.000000 0.000000 0.000000 0.282535 0.484160 0.027614 2.939952 -2.042498 16.427445 -1.928188 1.984808 -2.665854 6.665508 1.345415 65.344283 1.347699 18.082219 1.452332 0.000000 0.000000 0.000000 
8.917637 93.111565 -4.923817 0.000000 0.000000 0.000000 -0.966376 -20.726108 -1.688530 -6.072092 5.752133 -0.371475 19.063551 8.695961 1.926562 -12.197808 20.651345 -1.913552 -3.560727 0.003378 -0.573579 0.000000 0.000000 0.000000 -0.452894 -20.325989 -1.807465 -14.984571 -9.777933 -13.121690 16.321087 2.412417 2.030234 -5.031771 -3.144170 6.764590 -6.926109 0.427866 0.754423 0.000000 0.000000 0.000000 -0.822459 -21.056420 -2.739880 4.540557 1.070731 -1.669353 0.566345 0.258118 0.107928 0.951217 0.165146 0.230984 0.000000 0.000000 0.000000 0.680651 0.421733 -0.184775 -0.622111 -0.060335 2.821459 13.039168 10.742697 8.108352 0.000000 0.000000 0.000000 0.251594 0.354357 -0.086162 1.826649 -3.770185 -11.385121 -0.633445 -0.512654 -1.991247 -6.258479 -19.924775 -56.158785 0.009427 -13.014686 0.747253 0.000000 0.000000 0.000000 0.238873 0.383723 -0.014619 2.980552 -2.495189 16.692047 -1.976344 1.849449 -2.705628 6.295504 1.905458 65.916182 1.385237 18.533737 1.417229 0.000000 0.000000 0.000000 
9.336943 93.132607 -4.694548 0.000000 0.000000 0.000000 -0.846873 -21.568074 -1.825004 -6.022714 5.782022 -0.599760 19.048785 8.751629 1.910263 -12.495351 21.332060 -1.685976 -3.617030 0.015437 -0.542051 0.000000 0.000000 0.000000 -0.341672 -21.107272 -1.939527 -15.004293 -9.790834 -12.949053 15.942293 2.416570 1.874616 -5.019780 -2.997563 6.538997 -6.744726 0.427557 0.741925 0.000000 0.000000 0.000000 -0.729795 -21.859411 -2.880879 4.305517 0.585131 -1.862635 0.531194 0.163318 0.072761 0.987060 0.185876 0.232992 0.000000 0.000000 0.000000 0.633808 0.310973 -0.218579 -0.630525 -0.061942 2.974924 13.196910 11.509572 8.651260 0.000000 0.000000 0.000000 0.206321 0.254425 -0.123068 1.740126 -4.058668 -11.305087 -0.717131 -0.454638 -1.985008 -6.437066 -21.500216 -56.406352 -0.019372 -13.881688 0.754140 0.000000 0.000000 0.000000 0.216422 0.281404 -0.079031 3.018306 -2.963278 17.010280 -2.053014 1.689894 -2.713562 5.811955 2.540042 66.402682 1.425201 18.984485 1.392015 0.000000 0.000000 0.000000 
9.700781 93.167603 -4.468302 0.000000 0.000000 0.000000 -0.670179 -22.337319 -1.946523 -6.025222 5.797329 -0.765743 19.030847 8.801518 1.923186 -12.726922 21.960551 -1.459149 -3.681856 0.027677 -0.517519 0.000000 0.000000 0.000000 -0.177606 -21.829035 -2.065065 -14.966702 -9.768689 -12.751858 15.447747 2.344249 1.678511 -4.858133 -2.871492 6.359514 -6.627129 0.429454 0.732935 0.000000 0.000000 0.000000 -0.579568 -22.595248 -3.002022 4.082120 0.064497 -2.109418 0.495944 0.065665 0.012358 1.003219 0.201482 0.255888 0.000000 0.000000 0.000000 0.592634 0.196670 -0.273221 -0.636186 -0.066062 3.150610 13.352015 12.194937 9.247718 0.000000 0.000000 0.000000 0.168737 0.154201 -0.178687 1.632720 -4.386288 -11.151194 -0.779946 -0.397701 -1.970024 -6.457378 -23.204553 -56.673368 -0.007353 -15.148519 0.772375 0.000000 0.000000 0.000000 0.208086 0.175464 -0.169934 3.054914 -3.451824 17.368901 -2.154903 1.513601 -2.702352 5.283951 3.217937 66.789579 1.461928 19.408170 1.390167 0.000000 0.000000 0.000000 
